# xmcd
#
# Track frame offsets: 
#        150
#        19072
#        37395
#        55310
#        72045
#        88120
#        118042
#        133180
#        153232
#        179265
#        203037
#        223845
#
# Disc length: 3183 seconds
#
# Revision: 5
# Processed by: cddbd v1.4PL0 Copyright (c) Steve Scherf et al.
# Submitted via: ExactAudioCopy v0.90b3
#
DISCID=b10c6d0c
DTITLE=The Neville Brothers - Yellow Moon
DYEAR=1989
DGENRE=
TTITLE0=My Blood
TTITLE1=Yellow Moon
TTITLE2=Fire and Brimstone
TTITLE3=A Change is Gonna Come
TTITLE4=Sister Rosa
TTITLE5=With God on Our Side
TTITLE6=Wake Up
TTITLE7=Voo Doo
TTITLE8=The Ballad of Hollis Brown
TTITLE9=Will the Circle Be Unbroken
TTITLE10=Healing Chant
TTITLE11=Wild Injuns
EXTD=
EXTT0=
EXTT1=
EXTT2=
EXTT3=
EXTT4=
EXTT5=
EXTT6=
EXTT7=
EXTT8=
EXTT9=
EXTT10=
EXTT11=
PLAYORDER=
